HIERARCHY
ROOT Hips
{
	OFFSET 0.000000 0.000000 0.000000
	CHANNELS 6 Xposition Yposition Zposition Zrotation Yrotation Xrotation 
	JOINT LHipJoint
	{
		OFFSET 0.000000 0.000000 0.000000
		CHANNELS 3 Zrotation Yrotation Xrotation
		JOINT LeftUpLeg
		{
			OFFSET 1.363060 -1.794630 0.839290
			CHANNELS 3 Zrotation Yrotation Xrotation
			JOINT LeftLeg
			{
				OFFSET 2.448110 -6.726130 0.000000
				CHANNELS 3 Zrotation Yrotation Xrotation
				JOINT LeftFoot
				{
					OFFSET 2.562200 -7.039590 0.000000
					CHANNELS 3 Zrotation Yrotation Xrotation
					JOINT LeftToeBase
					{
						OFFSET 0.157640 -0.433110 2.322550
						CHANNELS 3 Zrotation Yrotation Xrotation
						End Site
						{
							OFFSET 0.000000 0.000000 0.000000
						}
					}
				}
			}
		}
	}
	JOINT RHipJoint
	{
		OFFSET 0.000000 0.000000 0.000000
		CHANNELS 3 Zrotation Yrotation Xrotation
		JOINT RightUpLeg
		{
			OFFSET -1.305520 -1.794630 0.839290
			CHANNELS 3 Zrotation Yrotation Xrotation
			JOINT RightLeg
			{
				OFFSET -2.542530 -6.985550 0.000000
				CHANNELS 3 Zrotation Yrotation Xrotation
				JOINT RightFoot
				{
					OFFSET -2.568260 -7.056230 0.000000
					CHANNELS 3 Zrotation Yrotation Xrotation
					JOINT RightToeBase
					{
						OFFSET -0.164730 -0.452590 2.363150
						CHANNELS 3 Zrotation Yrotation Xrotation
						End Site
						{
							OFFSET 0.000000 0.000000 0.000000
						}
					}
				}
			}
		}
	}
}
MOTION
Frames: 30
Frame Time: 0.008333
2.533097 16.898406 0.924625 -45.363205 -59.432687 24.098805 -12.755575 -0.737036 -2.158068 10.917749 1.692195 11.234841 0.612047 1.828544 24.372425 2.157451 11.554214 -14.309088 -1.357400 0.000000 -41.396600 6.992037 4.476942 -2.628871 12.704977 -32.080396 -59.584180 3.062489 -0.509406 8.604392 -1.632909 -10.466703 5.844602 -2.716900 -0.000000 -65.147800
2.527339 16.896393 0.936322 -45.215670 -59.527928 23.476492 -12.757421 -0.599218 -2.075113 10.903606 1.930275 11.793109 0.592929 1.822688 23.980416 2.109444 11.280896 -14.183070 -1.307500 0.000000 -41.699601 7.117539 4.271312 -2.933436 13.020639 -32.809589 -57.906302 3.033901 -0.611878 9.705155 -1.751731 -11.408013 5.492594 -2.842100 -0.000001 -65.923601
2.521547 16.895753 0.947198 -45.002626 -59.606950 22.827372 -12.754164 -0.462708 -1.986166 10.826294 2.069741 12.340206 0.574754 1.818712 23.585005 2.075747 11.090439 -14.053244 -1.264599 0.000000 -41.940999 7.249349 4.075517 -3.225092 13.231647 -33.571652 -56.172421 2.976642 -0.694119 10.725897 -1.944176 -12.838865 4.971517 -3.045700 0.000000 -66.582200
2.515255 16.895774 0.956983 -44.724357 -59.662457 22.141527 -12.746625 -0.327328 -1.892953 10.699724 2.123625 12.874334 0.555766 1.817884 23.202987 2.052312 10.958134 -13.928544 -1.228100 0.000001 -42.140800 7.384910 3.888299 -3.514929 13.341945 -34.380888 -54.402897 2.899858 -0.768421 11.734556 -2.186244 -14.597375 4.370244 -3.287400 -0.000000 -66.817500
2.508030 16.895691 0.965376 -44.380293 -59.696344 21.412779 -12.734741 -0.192972 -1.797939 10.532956 2.115135 13.389097 0.533919 1.820479 22.849186 2.034879 10.858578 -13.817208 -1.197199 -0.000000 -42.317100 7.525296 3.708111 -3.807186 13.336406 -35.229803 -52.601530 2.811508 -0.842873 12.763819 -2.451029 -16.509991 3.786587 -3.538700 0.000000 -66.412000
2.499433 16.895010 0.972110 -43.965678 -59.718042 20.639466 -12.717409 -0.059877 -1.704046 10.331293 2.074395 13.872374 0.507117 1.825628 22.535071 2.019330 10.767511 -13.726700 -1.171700 0.000000 -42.482700 7.673775 3.533062 -4.099875 13.193882 -36.090413 -50.764712 2.718878 -0.921396 13.816870 -2.711180 -18.407411 3.304568 -3.785800 0.000000 -65.320899
2.489109 16.893390 0.977044 -43.478485 -59.742131 19.828881 -12.692935 0.071751 -1.613450 10.096513 2.034750 14.307791 0.473887 1.831544 22.268634 2.002381 10.666520 -13.661935 -1.151100 -0.000000 -42.645200 7.833839 3.360790 -4.385576 12.901597 -36.919813 -48.892217 2.628144 -1.004218 14.877997 -2.943260 -20.143178 2.976962 -4.024900 0.000000 -63.683599
2.477066 16.890633 0.980268 -42.922712 -59.785406 18.993804 -12.660040 0.201441 -1.527607 9.829227 2.026563 14.679199 0.433556 1.836150 22.053300 1.981797 10.543724 -13.625805 -1.135500 0.000000 -42.805700 8.007114 3.188987 -4.655159 12.464398 -37.673799 -46.993782 2.543763 -1.089454 15.927013 -3.130528 -21.603984 2.816945 -4.251701 0.000000 -61.771800
2.463257 16.886926 0.981877 -42.298415 -59.859216 18.147717 -12.617435 0.329572 -1.445601 9.530475 2.070719 14.967856 0.385937 1.837417 21.892547 1.956266 10.392444 -13.620339 -1.124800 0.000000 -42.961000 8.192153 3.015757 -4.899946 11.909733 -38.321543 -45.097690 2.468525 -1.174918 16.952617 -3.264934 -22.719279 2.799917 -4.455100 0.000000 -59.911801
2.448032 16.882456 0.982437 -41.626332 -59.984102 17.314089 -12.566156 0.455336 -1.369113 9.202063 2.185204 15.181143 0.332854 1.833788 21.770058 1.927185 10.222021 -13.638526 -1.118300 0.000000 -43.102500 8.385753 2.837793 -5.112660 11.275332 -38.830911 -43.226119 2.403247 -1.258440 17.950472 -3.345105 -23.456872 2.869805 -4.612900 0.000000 -58.328101
2.432035 16.877297 0.982417 -40.932798 -60.164186 16.511198 -12.509376 0.577884 -1.298950 8.854730 2.371418 15.329411 0.276336 1.825484 21.675585 1.895733 10.039399 -13.674742 -1.115000 -0.000000 -43.224300 8.582015 2.652382 -5.294623 10.611843 -39.210500 -41.406962 2.348895 -1.339927 18.931660 -3.373212 -23.813749 2.954179 -4.695000 -0.000000 -57.175100
2.415318 16.872020 0.981863 -40.213675 -60.393897 15.742533 -12.446132 0.698674 -1.230028 8.485031 2.617059 15.402616 0.217047 1.811802 21.608723 1.863337 9.853287 -13.727453 -1.115200 0.000000 -43.316600 8.774976 2.461011 -5.442936 9.957407 -39.471480 -39.682359 2.303217 -1.420001 19.921847 -3.361139 -23.849348 2.992247 -4.689700 0.000000 -56.563100
2.398282 16.866858 0.981134 -39.492525 -60.672399 15.018588 -12.379779 0.817064 -1.163014 8.101042 2.909558 15.425676 0.157328 1.793791 21.552117 1.832545 9.678416 -13.787682 -1.117800 0.000000 -43.374199 8.959630 2.262849 -5.563150 9.342531 -39.636165 -38.058838 2.264637 -1.499714 20.940820 -3.318891 -23.627679 2.928392 -4.588500 -0.000000 -56.455000
2.381150 16.862018 0.980283 -38.780669 -60.991811 14.339810 -12.312049 0.932964 -1.097039 7.706866 3.230278 15.416482 0.098701 1.772586 21.495235 1.805379 9.526508 -13.849280 -1.122600 0.000000 -43.392399 9.132343 2.059431 -5.661528 8.782742 -39.733336 -36.537743 2.230359 -1.580209 22.007513 -3.259123 -23.236739 2.731386 -4.401400 0.000000 -56.773700
2.363920 16.857739 0.979187 -38.081986 -61.342741 13.700902 -12.243985 1.046388 -1.031498 7.304355 3.560299 15.391882 0.042112 1.749400 21.429469 1.783373 9.406418 -13.907296 -1.129300 -0.000000 -43.371400 9.291269 1.853463 -5.744798 8.278965 -39.788841 -35.107828 2.196526 -1.662110 23.133116 -3.195275 -22.774652 2.396116 -4.152800 -0.000000 -57.399000
2.346375 16.854260 0.977398 -37.376746 -61.714566 13.083807 -12.172675 1.158431 -0.962319 6.880202 3.880523 15.347655 -0.012926 1.724257 21.355528 1.767593 9.325093 -13.960596 -1.138400 0.000000 -43.307200 9.436257 1.650674 -5.812813 7.820918 -39.811159 -33.769396 2.157485 -1.745238 24.324999 -3.142934 -22.349970 1.940846 -3.877600 -0.000001 -58.190201
2.329102 16.850903 0.975353 -36.716514 -62.102286 12.501321 -12.107472 1.265110 -0.901395 6.472733 4.187864 15.344944 -0.063787 1.701468 21.253337 1.757700 9.277944 -14.001697 -1.147700 -0.000000 -43.218400 9.568318 1.448533 -5.886764 7.397357 -39.840826 -32.448361 2.111616 -1.828811 25.553845 -3.105098 -22.010000 1.401816 -3.596300 -0.000001 -58.949900
2.311482 16.848218 0.972096 -36.041247 -62.495532 11.920103 -12.039546 1.369919 -0.838644 6.045962 4.468566 15.338431 -0.113465 1.678749 21.140204 1.753582 9.266311 -14.035687 -1.158800 0.000000 -43.098900 9.689246 1.256308 -5.952966 6.989491 -39.850318 -31.169979 2.051780 -1.910652 26.812410 -3.097137 -21.849842 0.828181 -3.346300 0.000001 -59.551100
2.293399 16.846107 0.967468 -35.342553 -62.893486 11.331059 -11.968901 1.471898 -0.777237 5.600665 4.723482 15.336707 -0.162356 1.656662 21.012639 1.754741 9.286600 -14.061329 -1.171201 -0.000000 -42.954699 9.801141 1.076258 -6.011978 6.583807 -39.827753 -29.912379 1.975270 -1.989017 28.074465 -3.122514 -21.897643 0.263714 -3.142900 -0.000000 -59.841700
2.275165 16.844293 0.961524 -34.627108 -63.292767 10.734909 -11.897708 1.570265 -0.720103 5.146413 4.957715 15.342150 -0.210713 1.636091 20.872443 1.759510 9.328400 -14.078812 -1.183900 -0.000000 -42.797800 9.905560 0.909107 -6.064835 6.174530 -39.765386 -28.653909 1.881751 -2.061137 29.301125 -3.179238 -22.147158 -0.249552 -2.994400 0.000000 -59.734500
2.256508 16.843026 0.953868 -33.857649 -63.692728 10.112859 -11.821458 1.666328 -0.663809 4.663989 5.172601 15.328782 -0.260496 1.615528 20.727025 1.767306 9.389029 -14.090309 -1.197200 -0.000000 -42.628800 10.004216 0.758847 -6.100688 5.758424 -39.629377 -27.416322 1.771413 -2.125559 30.478455 -3.265665 -22.579497 -0.694084 -2.901501 0.000000 -59.196800
2.238089 16.841890 0.945218 -33.078875 -64.097024 9.491310 -11.747413 1.757419 -0.616615 4.185564 5.383770 15.320728 -0.310001 1.596554 20.567702 1.776223 9.456178 -14.092300 -1.209100 -0.000001 -42.459700 10.097082 0.620332 -6.125405 5.344943 -39.419159 -26.167471 1.648813 -2.180291 31.564471 -3.369817 -23.125077 -1.055446 -2.855900 -0.000001 -58.286900
2.219992 16.840986 0.935782 -32.296201 -64.506273 8.878434 -11.676789 1.843498 -0.579373 3.717683 5.598088 15.313345 -0.359221 1.578856 20.394477 1.785074 9.523012 -14.083986 -1.218600 0.000000 -42.296500 10.183979 0.491761 -6.136227 4.943450 -39.121603 -24.912294 1.518472 -2.224931 32.544697 -3.481797 -23.716546 -1.344497 -2.843600 -0.000000 -57.102700
2.201668 16.840874 0.924988 -31.451665 -64.918851 8.245318 -11.601541 1.927642 -0.543022 3.224210 5.808416 15.266491 -0.410601 1.559715 20.216922 1.794723 9.596417 -14.067841 -1.227400 -0.000000 -42.128200 10.266231 0.377224 -6.118540 4.559946 -38.705684 -23.711885 1.383768 -2.261679 33.447328 -3.596111 -24.302742 -1.592534 -2.847000 0.000001 -55.805200
2.183659 16.841341 0.913548 -30.593332 -65.334221 7.621714 -11.528320 2.008078 -0.512599 2.735361 6.022413 15.200362 -0.462073 1.540452 20.028401 1.803910 9.668462 -14.040589 -1.233800 -0.000000 -41.963900 10.342711 0.270238 -6.079827 4.208090 -38.184808 -22.546666 1.250286 -2.291429 34.262052 -3.700409 -24.810602 -1.818390 -2.846301 0.000000 -54.567201
2.165885 16.842538 0.901606 -29.728813 -65.750935 7.015152 -11.457756 2.085044 -0.487012 2.255145 6.238511 15.114947 -0.513075 1.520790 19.827871 1.812728 9.739994 -14.001491 -1.237600 0.000000 -41.801700 10.412991 0.168064 -6.020717 3.896562 -37.563300 -21.426721 1.121810 -2.316561 35.004269 -3.787450 -25.192576 -2.047323 -2.823800 0.000000 -53.536800
2.147976 16.844774 0.888876 -28.832238 -66.163514 6.409044 -11.385702 2.160281 -0.460003 1.763858 6.442278 14.997078 -0.564279 1.499724 19.616754 1.822708 9.821191 -13.949680 -1.239700 -0.000000 -41.631600 10.478342 0.071648 -5.938646 3.625022 -36.846503 -20.380609 1.000760 -2.340000 35.705042 -3.853513 -25.421814 -2.303012 -2.765700 0.000000 -52.820401
2.130627 16.847586 0.876421 -27.994134 -66.573068 5.861672 -11.323404 2.229668 -0.442028 1.317117 6.649475 14.886430 -0.611867 1.479482 19.388000 1.831648 9.897203 -13.884592 -1.238100 0.000001 -41.464700 10.535092 -0.028672 -5.847597 3.408279 -36.057292 -19.355066 0.889427 -2.362681 36.349398 -3.893705 -25.480173 -2.586929 -2.668101 0.000000 -52.474200
2.112980 16.851493 0.863338 -27.144188 -66.967383 5.324776 -11.260676 2.297263 -0.420464 0.867666 6.830847 14.753925 -0.658341 1.458348 19.149139 1.842413 9.986462 -13.807195 -1.234900 -0.000000 -41.285200 10.586787 -0.126726 -5.742744 3.230406 -35.213278 -18.395271 0.788187 -2.387109 36.977083 -3.909930 -25.376949 -2.908154 -2.530700 0.000000 -52.503400
2.095118 16.856325 0.849895 -26.307979 -67.341810 4.811743 -11.200016 2.361963 -0.397115 0.429679 6.984221 14.614089 -0.702536 1.437124 18.899177 1.854708 10.086358 -13.718170 -1.229699 0.000000 -41.093800 10.632927 -0.224846 -5.631801 3.089060 -34.340648 -17.479809 0.697094 -2.413757 37.585780 -3.903617 -25.130531 -3.256137 -2.362900 -0.000000 -52.862300
